<svg xmlns="http://www.w3.org/2000/svg" width="49.686" height="57.068" viewBox="0 0 49.686 57.068">
  <g id="logo_for_dark_bg" transform="translate(0)">
    <g id="Group_6_1_" transform="translate(0)">
      <g id="Group_8915" data-name="Group 8915" transform="translate(8.683 34.333)">
        <path id="Path_162_1_" d="M24.685,88.647c1.8,0,2.735-1.079,2.735-2.942,0-3.335-3.584-3.791-3.584-6.193,0-.83.333-1.159.91-1.159s.91.31.91,1.159v.479H27.4v-.371c0-1.863-.91-2.942-2.693-2.942s-2.693,1.079-2.693,2.942c0,3.335,3.584,3.791,3.584,6.193,0,.83-.371,1.14-.952,1.14s-.952-.31-.952-1.14v-.832H21.95v.725C21.95,87.568,22.879,88.647,24.685,88.647Z" transform="translate(-21.95 -76.67)" fill="#455a65"/>
        <path id="Path_163_1_" d="M38.739,88.656,39.4,82.44l.662,6.216h2.444L43.793,76.97H42.2l-.952,9.284-.913-9.284H38.57L37.7,86.188,36.7,76.97H34.92l1.305,11.686H38.74Z" transform="translate(-28.835 -76.825)" fill="#455a65"/>
        <rect id="Rectangle_574_1_" width="1.825" height="11.686" transform="translate(15.89 0.145)" fill="#455a65"/>
        <path id="Path_164_1_" d="M65.155,88.656V78.649h1.926V76.97H61.43v1.679h1.9V88.656Z" transform="translate(-42.909 -76.825)" fill="#455a65"/>
        <path id="Path_165_1_" d="M80.321,80.741V79.6c0-1.863-.929-2.942-2.735-2.942s-2.735,1.079-2.735,2.942v6.073c0,1.863.929,2.942,2.735,2.942s2.735-1.079,2.735-2.942V84.119H78.58V85.8c0,.83-.371,1.14-.952,1.14s-.952-.31-.952-1.14V79.48c0-.83.371-1.159.952-1.159s.952.31.952,1.159v1.243h1.741Z" transform="translate(-50.033 -76.66)" fill="#455a65"/>
        <path id="Path_166_1_" d="M88.85,76.97V88.656h1.844V83.665h2.074v4.992H94.63V76.97H92.767v5.015H90.694V76.97Z" transform="translate(-57.465 -76.825)" fill="#455a65"/>
      </g>
      <path id="Path_167_1_" d="M20.261,112.96l-1.1,5.823h.979l.181-1.06h1.319l.181,1.06H22.9l-1.092-5.823Zm.227,3.983L21.009,114l.521,2.941Z" transform="translate(-10.477 -61.77)" fill="#455a65"/>
      <path id="Path_168_1_" d="M30.682,117.415a.562.562,0,0,1-1.124,0v-4.5H28.48v4.441c0,.943.539,1.459,1.6,1.459s1.6-.539,1.6-1.459V112.91H30.664v4.5Z" transform="translate(-15.574 -61.742)" fill="#455a65"/>
      <path id="Path_169_1_" d="M36.515,113.78h1.119v5h1.079v-5h1.119v-.82H36.51v.82Z" transform="translate(-19.965 -61.77)" fill="#455a65"/>
      <path id="Path_170_1_" d="M46.33,112.78c-1.06,0-1.64.539-1.64,1.459v3.027c0,.943.58,1.459,1.64,1.459s1.64-.539,1.64-1.459v-3.027C47.971,113.319,47.391,112.78,46.33,112.78Zm.562,4.563a.562.562,0,0,1-1.124,0V114.2a.562.562,0,0,1,1.124,0Z" transform="translate(-24.438 -61.671)" fill="#455a65"/>
      <path id="Path_171_1_" d="M55.732,117.084l-.8-4.124h-1.5v5.823h.943v-4.124l.8,4.124h1.02l.739-4.183v4.183h1.02V112.96h-1.5Z" transform="translate(-29.217 -61.77)" fill="#455a65"/>
      <path id="Path_172_1_" d="M65.621,112.96l-1.1,5.823H65.5l.181-1.06H67l.181,1.06h1.079l-1.1-5.823Zm.222,3.983L66.364,114l.521,2.941Z" transform="translate(-35.281 -61.77)" fill="#455a65"/>
      <path id="Path_173_1_" d="M72.42,113.78h1.142v5h1.06v-5h1.142v-.82h-3.34v.82Z" transform="translate(-39.601 -61.77)" fill="#455a65"/>
      <rect id="Rectangle_575_1_" width="1.079" height="5.823" transform="translate(36.621 51.19)" fill="#455a65"/>
      <path id="Path_174_1_" d="M86.34,112.78c-1.06,0-1.64.539-1.64,1.459v3.027c0,.943.58,1.459,1.64,1.459s1.64-.539,1.64-1.459v-3.027C87.981,113.319,87.4,112.78,86.34,112.78Zm.562,4.563a.562.562,0,0,1-1.124,0V114.2a.562.562,0,0,1,1.124,0Z" transform="translate(-46.316 -61.671)" fill="#455a65"/>
      <path id="Path_175_1_" d="M95.905,116.44l-1.1-3.48H93.44v5.823h.979V114.56l1.346,4.224h1.1V112.96h-.961Z" transform="translate(-51.096 -61.77)" fill="#455a65"/>
      <path id="Path_176_1_" d="M48.431,0h-28.8V2.379H47.347V47.506h-45V19.151H0v29.5a1.252,1.252,0,0,0,1.251,1.26H48.426a1.252,1.252,0,0,0,1.26-1.251V1.26A1.28,1.28,0,0,0,48.431,0Z" transform="translate(0)" fill="#455a65"/>
    </g>
    <path id="Path_177_1_" d="M18.05,15.249h0V0L0,17.592H15.73a2.341,2.341,0,0,0,2.32-2.343Z" transform="translate(0)" fill="#c0d736"/>
  </g>
</svg>
